subject01_walk1_grf.mot																		
version=1																		
nRows=67							0.05											
nColumns=19																		
inDegrees=yes																		
endheader																		
time	ground_force_vx	ground_force_vy	ground_force_vz	ground_force_px	ground_force_py	ground_force_pz	1_ground_force_vx	1_ground_force_vy	1_ground_force_vz	1_ground_force_px	1_ground_force_py	1_ground_force_pz	ground_torque_x	ground_torque_y	ground_torque_z	1_ground_torque_x	1_ground_torque_y	1_ground_torque_z
1.25	65.78975079	444.4388329	-24.74278592	0.35041338	-0.0075	0.18472873	3.650335357	18.88532748	-0.76694122	0.773579	-0.0075	-0.1370089	0	2.249942406	0	0.123359702	0.255432996	0.317526903
1.2517	66.49622637	443.4757486	-24.64129906	0.34858762	-0.0075	0.18473042	4.493430645	21.94977541	-0.991795699	0.77415312	-0.0075	-0.13697502	0	2.276305134	0	0.114649598	0.295806339	0.338083859
1.2533	67.22154539	442.4083668	-24.53645217	0.34677856	-0.0075	0.18473922	5.362684452	25.30841071	-1.286839998	0.77470101	-0.0075	-0.13694269	0	2.311479115	0	0.103593654	0.336638202	0.352910412
1.255	67.96510701	441.2376511	-24.4253338	0.34499275	-0.0075	0.18475616	6.237277735	28.95851741	-1.658611835	0.7752225	-0.0075	-0.13691192	0	2.353692945	0	0.09068204	0.377531767	0.362011461
1.2567	68.72481793	439.9647056	-24.30445339	0.34323672	-0.0075	0.18478232	7.093560571	32.89221505	-2.111733986	0.7757174	-0.0075	-0.13688271	0	2.400472607	0	0.076477857	0.41824676	0.365611011
1.2583	69.49715595	438.5905366	-24.16994957	0.34151675	-0.0075	0.18481871	7.905525318	37.0962186	-2.648578498	0.77618552	-0.0075	-0.13685509	0	2.448825354	0	0.061599869	0.458737772	0.364138808
1.26	70.27703925	437.1158155	-24.0178043	0.33983848	-0.0075	0.18486622	8.645544134	41.5519116	-3.268828547	0.77662669	-0.0075	-0.13682905	0	2.495346953	0	0.046675625	0.499151935	0.358155964
1.2617	71.05793731	435.5406927	-23.84410124	0.33820656	-0.0075	0.18492558	9.285222208	46.23561115	-3.969176348	0.77704072	-0.0075	-0.13680462	0	2.536391324	0	0.032294212	0.53985945	0.348311447
1.2633	71.83205673	433.8645393	-23.64521489	0.33662441	-0.0075	0.18499733	9.796307055	51.1190191	-4.743271036	0.77742744	-0.0075	-0.1367818	0	2.56828989	0	0.019007052	0.581389477	0.33530139
1.265	72.59052802	432.0857774	-23.41808567	0.33509386	-0.0075	0.18508166	10.15168427	56.16992669	-5.58165869	0.77778664	-0.0075	-0.1367606	0	2.587557333	0	0.007276218	0.62443291	0.319770257
1.2667	73.32374948	430.2017479	-23.16044326	0.33361495	-0.0075	0.18517842	10.32652355	61.35305474	-6.471974848	0.77811816	-0.0075	-0.13674104	0	2.59109811	0	-0.002550917	0.669795154	0.302323731
1.2683	74.02170625	428.208582	-22.87089298	0.33218578	-0.0075	0.18528705	10.29922586	66.63115497	-7.399301828	0.77842182	-0.0075	-0.13672312	0	2.576373203	0	-0.010236723	0.71831109	0.283424099
1.27	74.67450662	426.1011693	-22.54910042	0.33080244	-0.0075	0.18540653	10.05241834	71.96607335	-8.346721965	0.77869742	-0.0075	-0.13670686	0	2.541632351	0	-0.015661955	0.770793333	0.263398599
1.2717	75.27268982	423.8731868	-22.19582967	0.32945894	-0.0075	0.18553533	9.573866049	77.32003583	-9.295837813	0.77894478	-0.0075	-0.13669226	0	2.485970773	0	-0.018861151	0.827964398	0.242395069
1.2733	75.80778077	421.517169	-21.81293287	0.32814747	-0.0075	0.18567146	8.857118074	82.65683326	-10.22764909	0.77916373	-0.0075	-0.13667934	0	2.409476502	0	-0.019977868	0.890414537	0.220374345
1.275	76.27264456	419.0246336	-21.40325838	0.32685846	-0.0075	0.18581243	7.902024142	87.94300047	-11.12334526	0.77935408	-0.0075	-0.13666811	0	2.313237491	0	-0.019260863	0.958512257	0.197110299
1.2767	76.66186975	416.3863005	-20.97056542	0.32558094	-0.0075	0.1859553	6.715038349	93.14889744	-11.96509174	0.77951564	-0.0075	-0.13665857	0	2.199313098	0	-0.017070414	1.03240546	0.172197795
1.2783	76.97205434	413.5923197	-20.51931768	0.32430291	-0.0075	0.18609673	5.309200071	98.24961428	-12.73692403	0.77964824	-0.0075	-0.13665075	0	2.07069312	0	-0.013823726	1.111985137	0.14509297
1.28	77.20196588	410.6325723	-20.05445877	0.32301177	-0.0075	0.18623309	3.70384492	103.2257231	-13.42541257	0.77975169	-0.0075	-0.13664464	0	1.931159443	0	-0.009996543	1.196858565	0.115107646
1.2817	77.35269218	407.4970032	-19.5812118	0.32169482	-0.0075	0.18636048	1.924120213	108.0637176	-14.02030993	0.77982581	-0.0075	-0.13664027	0	1.785163501	0	-0.006088217	1.286354832	0.081486421
1.2833	77.42745525	404.1759716	-19.10474817	0.32033976	-0.0075	0.18647498	9.95051E-05	112.7563471	-14.51492587	0.77987042	-0.0075	-0.13663764	0	1.637568226	0	-0.002598327	1.379555918	0.043396208
1.285	77.43156851	400.6606229	-18.63001725	0.3189353	-0.0075	0.18657271	-2.034211561	117.3025215	-14.90641956	0.77988533	-0.0075	-0.13663676	0	1.493524403	0	0	1.47533705	0
1.2867	77.37200652	396.943233	-18.16146836	0.31747156	-0.0075	0.18664996	-4.142113429	121.707108	-15.19573547	0.7794634	-0.0075	-0.13664805	0	1.35818562	0	0	1.578536353	0
1.2883	77.25704293	393.0175751	-17.70285037	0.31594063	-0.0075	0.18670338	-6.285607669	125.9804212	-15.38744842	0.77898425	-0.0075	-0.13664689	0	1.236495947	0	0	1.682249391	0
1.29	77.09571213	388.8791925	-17.25704388	0.31433695	-0.0075	0.18673014	-8.426821018	130.1375361	-15.48934404	0.77844414	-0.0075	-0.13663244	0	1.132964758	0	0	1.785121806	0
1.2917	76.89721006	384.5256591	-16.82595252	0.31265762	-0.0075	0.18672799	-10.5294928	134.1974688	-15.51175643	0.77784074	-0.0075	-0.13660446	0	1.0514577	0	0	1.885828534	0
1.2933	76.67034731	379.9567724	-16.41041874	0.31090266	-0.0075	0.18669542	-12.56037813	138.1821942	-15.46694107	0.77717348	-0.0075	-0.13656358	0	0.995046588	0	0	1.983124479	0
1.295	76.42286642	375.1746749	-16.01019464	0.3090751	-0.0075	0.1866318	-14.49053589	142.1156984	-15.36816335	0.7764433	-0.0075	-0.13651115	0	0.965820785	0	0	2.075919547	0
1.2967	76.16097487	370.1839099	-15.62404989	0.30718101	-0.0075	0.1865373	-16.29640015	146.0228621	-15.2288995	0.77565292	-0.0075	-0.13644919	0	0.964860457	0	0	2.163352909	0
1.2983	75.8887585	364.9913914	-15.24975505	0.3052293	-0.0075	0.18641309	-17.96063019	149.9285815	-15.06195956	0.77480654	-0.0075	-0.13638051	0	0.992091753	0	0	2.244815123	0
1.3	75.60796354	359.6062938	-14.88427754	0.30323164	-0.0075	0.18626124	-19.47265358	153.8567907	-14.87879101	0.77391004	-0.0075	-0.13630858	0	1.046330691	0	0	2.32002484	0
1.3017	75.31767817	354.0398404	-14.52391917	0.30120197	-0.0075	0.18608469	-20.8288669	157.8296933	-14.68878937	0.77297066	-0.0075	-0.13623744	0	1.125284645	0	0	2.389043649	0
1.3033	75.01433353	348.3050748	-14.16452656	0.29915612	-0.0075	0.18588714	-22.03252232	161.8671239	-14.49886582	0.77199687	-0.0075	-0.13617167	0	1.225655649	0	0	2.452283256	0
1.305	74.69186132	342.4165127	-13.80164164	0.29711133	-0.0075	0.185673	-23.09328958	165.9860251	-14.31321027	0.77099815	-0.0075	-0.13611627	0	1.34325419	0	0	2.510464893	0
1.3067	74.34195732	336.3897891	-13.4307635	0.29508563	-0.0075	0.18544723	-24.02651654	170.2001329	-14.13314042	0.76998433	-0.0075	-0.13607639	0	1.473165955	0	0	2.564616774	0
1.3083	73.95459432	330.241265	-13.04757229	0.29309723	-0.0075	0.18521513	-24.85217518	174.5197417	-13.95732464	0.7689656	-0.0075	-0.1360573	0	1.609992007	0	0	2.616027949	0
1.31	73.5185396	323.9876061	-12.64804589	0.29116395	-0.0075	0.18498223	-25.5936497	178.9517272	-13.78202102	0.7679518	-0.0075	-0.13606405	0	1.748007244	0	0	2.666149151	0
1.3117	73.02219038	317.645364	-12.22874747	0.2893026	-0.0075	0.18475404	-26.2763731	183.4995399	-13.60160844	0.76695226	-0.0075	-0.13610138	0	1.881492253	0	0	2.716545343	0
1.3133	72.45419197	311.2305632	-11.78691285	0.28752833	-0.0075	0.18453589	-26.92634558	188.1634732	-13.40904902	0.76597514	-0.0075	-0.13617333	0	2.004898053	0	0	2.76880151	0
1.315	71.80433365	304.7583378	-11.32063001	0.28585424	-0.0075	0.18433268	-27.56872861	192.9408775	-13.19661037	0.76502732	-0.0075	-0.13628317	0	2.113176481	0	0	2.824422175	0
1.3167	71.06423923	298.2425765	-10.82891509	0.28429083	-0.0075	0.18414876	-28.22652562	197.8265004	-12.95648775	0.76411387	-0.0075	-0.13643325	0	2.201983399	0	0	2.884702701	0
1.3183	70.22802064	291.695688	-10.31181508	0.28284573	-0.0075	0.1839877	-28.91938865	202.8128739	-12.68136454	0.76323785	-0.0075	-0.13662473	0	2.267865413	0	0	2.950703971	0
1.32	69.29281283	285.1283701	-9.770417319	0.28152335	-0.0075	0.18385227	-29.66266581	207.890656	-12.36501276	0.76240024	-0.0075	-0.13685765	0	2.308452022	0	0	3.023159275	0
1.3217	68.25909598	278.5494794	-9.206835543	0.28032484	-0.0075	0.18374428	-30.46678023	213.0490737	-12.00262776	0.76159971	-0.0075	-0.13713077	0	2.322532954	0	0	3.102418545	0
1.3233	67.13093703	271.9659935	-8.624220302	0.27924798	-0.0075	0.1836645	-31.33683566	218.2762319	-11.59117139	0.76083285	-0.0075	-0.13744168	0	2.310153111	0	0	3.188444959	0
1.325	65.9157941	265.38301	-8.02661694	0.27828722	-0.0075	0.18361269	-32.27258709	223.5595802	-11.12941776	0.76009419	-0.0075	-0.1377868	0	2.272532956	0	0	3.280797081	0
1.3267	64.62438744	258.8038618	-7.418938867	0.27743391	-0.0075	0.18358749	-33.26875618	228.8861736	-10.618009	0.75937653	-0.0075	-0.1381616	0	2.212107865	0	0	3.378648083	0
1.3283	63.27012309	252.2302822	-6.806740809	0.27667639	-0.0075	0.18358663	-34.31559438	234.2431072	-10.05920623	0.75867112	-0.0075	-0.13856077	0	2.132292972	0	0	3.480809554	0
1.33	61.86852535	245.6626698	-6.196084931	0.27600043	-0.0075	0.18360695	-35.39972317	239.6177947	-9.456652911	0.75796818	-0.0075	-0.13897849	0	2.037329749	0	0	3.585835362	0
1.3317	60.43640969	239.1003527	-5.593370368	0.27538952	-0.0075	0.18364453	-36.50517694	244.9982639	-8.814966658	0.75725737	-0.0075	-0.13940863	0	1.93209141	0	0	3.692079344	0
1.3333	58.99100413	232.5419541	-5.005121143	0.2748253	-0.0075	0.18369476	-37.61453284	250.3734765	-8.139245701	0.75652821	-0.0075	-0.13984504	0	1.821791579	0	0	3.797789065	0
1.335	57.54909345	225.9857222	-4.437748914	0.27428807	-0.0075	0.1837526	-38.7101072	255.7335426	-7.434697516	0.75577079	-0.0075	-0.14028187	0	1.711727588	0	0	3.90121484	0
1.3367	56.12606055	219.429898	-3.897303096	0.27375723	-0.0075	0.18381269	-39.77514863	261.0700256	-6.70612668	0.75497609	-0.0075	-0.14071382	0	1.606955691	0	0	4.000689988	0
1.3383	54.73517328	212.8730844	-3.389336553	0.27321192	-0.0075	0.18386947	-40.79486204	266.3760442	-5.957599664	0.75413667	-0.0075	-0.14113636	0	1.512108358	0	0	4.09472826	0
1.34	53.38679116	206.3145742	-2.918613296	0.27263153	-0.0075	0.18391748	-41.75735182	271.6465282	-5.192081358	0.75324693	-0.0075	-0.14154596	0	1.43107067	0	0	4.182068021	0
1.3417	52.08798793	199.7546677	-2.488996467	0.27199652	-0.0075	0.18395146	-42.6543047	276.8782425	-4.411281052	0.7523035	-0.0075	-0.14194023	0	1.366846453	0	0	4.261759109	0
1.3433	50.84214715	193.1949049	-2.103288624	0.27128891	-0.0075	0.1839666	-43.48138486	282.0698576	-3.615495152	0.75130553	-0.0075	-0.14231792	0	1.321359774	0	0	4.333201261	0
1.345	49.64894576	186.6382542	-1.763111424	0.27049318	-0.0075	0.18395864	-44.23839482	287.2219204	-2.803669178	0.7502548	-0.0075	-0.142679	0	1.295374593	0	0	4.396147305	0
1.3467	48.50450573	180.0891993	-1.468859521	0.26959693	-0.0075	0.18392411	-44.92916636	292.3366941	-1.973580641	0.74915573	-0.0075	-0.14302469	0	1.288475851	0	0	4.450696447	0
1.3483	47.40169068	173.5537835	-1.219702098	0.26859165	-0.0075	0.18386036	-45.5611317	297.418034	-1.121978244	0.7480152	-0.0075	-0.14335716	0	1.299066438	0	0	4.497275531	0
1.35	46.3307215	167.0395543	-1.013643084	0.26747346	-0.0075	0.18376573	-46.14470223	302.4710622	-0.244993554	0.74684242	-0.0075	-0.14367951	0	1.324500436	0	0	4.536589449	0
1.3517	45.27981344	160.5554368	-0.847559387	0.26624385	-0.0075	0.18363979	-46.69252885	307.5018862	0.661525447	0.74564833	-0.0075	-0.14399549	0	1.361173516	0	0	4.569526889	0
1.3533	44.23606641	154.1115486	-0.717438538	0.26491035	-0.0075	0.1834832	-47.2185397	312.5171253	1.601594138	0.74444526	-0.0075	-0.14430928	0	1.404783911	0	0	4.597141974	0
1.355	43.18617179	147.7189397	-0.618504243	0.26348678	-0.0075	0.18329788	-47.73697344	317.5235129	2.578718891	0.74324626	-0.0075	-0.14462512	0	1.450504289	0	0	4.620563557	0
1.3567	42.11736745	141.3892945	-0.545452854	0.26199375	-0.0075	0.18308695	-48.26141438	322.527392	3.595460273	0.74206449	-0.0075	-0.14494717	0	1.493284421	0	0	4.640913284	0
1.3583	41.01815486	135.1345887	-0.492707205	0.26045845	-0.0075	0.18285462	-48.80392128	327.5342275	4.653129575	0.7409126	-0.0075	-0.1452792	0	1.528117837	0	0	4.659248555	0
1.36	39.87895428	128.9667744	-0.454681878	0.25891446	-0.0075	0.18260601	-49.37422044	332.5481606	5.751567091	0.739802	-0.0075	-0.14562428	0	1.550303804	0	0	4.676518756	0
